<svg width="60" height="60" viewBox="0 0 60 60" fill="none" xmlns="http://www.w3.org/2000/svg">
<g clip-path="url(#clip0_324_1419)">
<path d="M6.24996 0H53.7499C57.2018 0 60 2.7982 60 6.24996V53.7499C60 57.2018 57.2018 60 53.75 60H6.24996C2.7982 60 0 57.2018 0 53.75V6.24996C0 2.7982 2.7982 0 6.24996 0Z" fill="#319CEA"/>
<path d="M46.2501 17.5H51.2501C51.9405 17.5 52.5002 16.9403 52.5002 16.2499V8.74992C52.5 8.05969 51.9404 7.5 51.25 7.5H46.25C38.6561 7.5 32.5 13.6561 32.5 21.25V27.4999H26.25C25.5597 27.4999 25 28.0596 25 28.75V36.25C25 36.9403 25.5597 37.5 26.25 37.5H32.5V60H42.5V37.5H48.75C49.2878 37.4996 49.7651 37.1552 49.935 36.645L52.435 29.145C52.6532 28.49 52.2991 27.7822 51.6441 27.564C51.5171 27.5217 51.3839 27.5 51.25 27.4999H42.5V21.25C42.5001 19.1789 44.179 17.5 46.2501 17.5Z" fill="#FAFAFA"/>
<path d="M53.75 60H41.25C40.5596 60 40 59.4403 40 58.75V36.25C40 35.5596 40.5596 34.9999 41.25 34.9999H47.85L49.5175 30H41.25C40.5596 30 40 29.4403 40 28.75V21.25C40 17.7982 42.7982 15 46.2499 15H49.9999V9.99996H46.2499C40.0368 9.99996 34.9999 15.0368 34.9999 21.25V28.75C34.9999 29.4403 34.4402 30 33.7499 30H27.4999V35H33.75C34.4404 35 35 35.5597 35 36.2501V58.7501C35 59.4404 34.4404 60.0001 33.75 60.0001H6.24996C2.7982 60 0 57.2018 0 53.75V6.24996C0 2.7982 2.7982 0 6.24996 0H53.7499C57.2018 0 60 2.7982 60 6.24996V53.7499C60 57.2018 57.2018 60 53.75 60ZM42.5 57.5H53.75C55.8211 57.5 57.5 55.8211 57.5 53.75V6.24996C57.5 4.17891 55.8211 2.49996 53.75 2.49996H6.24996C4.17891 2.49996 2.49996 4.17891 2.49996 6.24996V53.7499C2.49996 55.821 4.17891 57.4999 6.24996 57.4999H32.5V37.5H26.25C25.5596 37.5 25 36.9403 25 36.25V28.75C25 28.0596 25.5596 27.4999 26.25 27.4999H32.5V21.25C32.5097 13.6601 38.66 7.50961 46.25 7.5H51.2501C51.9403 7.5 52.5 8.05969 52.5 8.75004V16.25C52.5 16.9404 51.9403 17.5001 51.25 17.5001H46.2499C44.1789 17.5001 42.4999 19.179 42.4999 21.2501V27.5H51.25C51.9403 27.4992 52.5007 28.0581 52.5015 28.7484C52.5016 28.8832 52.4801 29.0171 52.4374 29.145L49.9375 36.645C49.7672 37.1562 49.2887 37.5007 48.75 37.5H42.5V57.5Z" fill="black"/>
</g>
<defs>
<clipPath id="clip0_324_1419">
<rect width="60" height="60" fill="white"/>
</clipPath>
</defs>
</svg>
