<svg width="62" height="61" viewBox="0 0 62 61" fill="none" xmlns="http://www.w3.org/2000/svg">
<g clip-path="url(#clip0_324_1618)">
<path fill-rule="evenodd" clip-rule="evenodd" d="M15.7422 5.95703H46.2578C51.5859 5.95703 55.9453 10.2461 55.9453 15.4883V45.5117C55.9453 50.7539 51.5859 55.043 46.2578 55.043H15.7422C10.4141 55.043 6.05469 50.7539 6.05469 45.5117V15.4883C6.05469 10.2461 10.4141 5.95703 15.7422 5.95703ZM46.2578 1.19141H15.7422C7.75 1.19141 1.21094 7.625 1.21094 15.4883V45.5117C1.21094 53.375 7.75 59.8086 15.7422 59.8086H46.2578C54.25 59.8086 60.7891 53.375 60.7891 45.5117V15.4883C60.7891 7.625 54.2505 1.19141 46.2578 1.19141Z" fill="url(#paint0_linear_324_1618)"/>
<path fill-rule="evenodd" clip-rule="evenodd" d="M46.2578 5.95703H15.7422C10.4141 5.95703 6.05469 10.2461 6.05469 15.4883V45.5117C6.05469 50.7539 10.4141 55.043 15.7422 55.043H46.2578C51.5859 55.043 55.9453 50.7539 55.9453 45.5117V15.4883C55.9453 10.2461 51.5859 5.95703 46.2578 5.95703ZM46.2578 11.9145C48.2639 11.9145 49.8906 13.5145 49.8906 15.4887C49.8906 17.4625 48.2639 19.063 46.2578 19.063C44.2513 19.063 42.625 17.4625 42.625 15.4887C42.625 13.5145 44.2513 11.9145 46.2578 11.9145ZM31 18.5859C37.6876 18.5859 43.1094 23.9198 43.1094 30.5C43.1094 37.0797 37.6876 42.4141 31 42.4141C24.3124 42.4141 18.8906 37.0797 18.8906 30.5C18.8906 23.9203 24.3124 18.5859 31 18.5859Z" fill="white"/>
<path fill-rule="evenodd" clip-rule="evenodd" d="M49.8906 15.4888C49.8906 17.4625 48.2639 19.063 46.2578 19.063C44.2513 19.063 42.625 17.4625 42.625 15.4888C42.625 13.5146 44.2513 11.9146 46.2578 11.9146C48.2639 11.9146 49.8906 13.5146 49.8906 15.4888Z" fill="url(#paint1_linear_324_1618)"/>
<path fill-rule="evenodd" clip-rule="evenodd" d="M43.1094 30.5C43.1094 23.9203 37.6876 18.5859 31 18.5859C24.3124 18.5859 18.8906 23.9198 18.8906 30.5C18.8906 37.0797 24.3124 42.4141 31 42.4141C37.6881 42.4141 43.1094 37.0797 43.1094 30.5ZM31 23.3516C35.0127 23.3516 38.2656 26.5521 38.2656 30.5C38.2656 34.4479 35.0127 37.6484 31 37.6484C26.9874 37.6484 23.7344 34.4479 23.7344 30.5C23.7344 26.5521 26.9874 23.3516 31 23.3516Z" fill="url(#paint2_linear_324_1618)"/>
<path fill-rule="evenodd" clip-rule="evenodd" d="M38.2656 30.5C38.2656 34.4479 35.0126 37.6484 31 37.6484C26.9874 37.6484 23.7344 34.4479 23.7344 30.5C23.7344 26.5521 26.9874 23.3516 31 23.3516C35.0126 23.3516 38.2656 26.5521 38.2656 30.5Z" fill="white"/>
<path d="M46.2578 0H28.5781C27.9093 0 27.3672 0.53334 27.3672 1.19141C27.3672 1.84947 27.9093 2.38281 28.5781 2.38281H46.2578C53.6024 2.38281 59.5781 8.26166 59.5781 15.4883V45.5117C59.5781 52.7383 53.6024 58.6172 46.2578 58.6172H15.7422C8.39757 58.6172 2.42188 52.7383 2.42188 45.5117V15.4883C2.42188 8.26166 8.39757 2.38281 15.7422 2.38281H18.8906C19.5595 2.38281 20.1016 1.84947 20.1016 1.19141C20.1016 0.53334 19.5595 0 18.8906 0H15.7422C7.06175 0 0 6.94785 0 15.4883V45.5117C0 54.0521 7.06175 61 15.7422 61H46.2578C54.9382 61 62 54.0521 62 45.5117V15.4883C62 6.94785 54.9382 0 46.2578 0Z" fill="black"/>
<path d="M43.1094 56.2344H46.2578C52.2671 56.2344 57.1562 51.4241 57.1562 45.5117V15.4883C57.1562 9.57593 52.2671 4.76562 46.2578 4.76562H15.7422C9.73291 4.76562 4.84375 9.57593 4.84375 15.4883V45.5117C4.84375 51.4241 9.73291 56.2344 15.7422 56.2344H33.4219C34.0907 56.2344 34.6328 55.701 34.6328 55.043C34.6328 54.3849 34.0907 53.8516 33.4219 53.8516H15.7422C11.0683 53.8516 7.26562 50.1103 7.26562 45.5117V15.4883C7.26562 10.8897 11.0683 7.14844 15.7422 7.14844H46.2578C50.9317 7.14844 54.7344 10.8897 54.7344 15.4883V45.5117C54.7344 50.1103 50.9317 53.8516 46.2578 53.8516H43.1094C42.4405 53.8516 41.8984 54.3849 41.8984 55.043C41.8984 55.701 42.4405 56.2344 43.1094 56.2344Z" fill="black"/>
<path d="M44.3203 30.5C44.3203 23.2738 38.3446 17.3945 31 17.3945C23.6554 17.3945 17.6797 23.2738 17.6797 30.5C17.6797 37.7262 23.6554 43.6055 31 43.6055C38.3446 43.6055 44.3203 37.7262 44.3203 30.5ZM31 41.2227C24.9907 41.2227 20.1016 36.4124 20.1016 30.5C20.1016 24.5876 24.9907 19.7773 31 19.7773C37.0093 19.7773 41.8984 24.5876 41.8984 30.5C41.8984 36.4124 37.0093 41.2227 31 41.2227Z" fill="black"/>
<path d="M31 22.1602C26.3261 22.1602 22.5234 25.9015 22.5234 30.5C22.5234 35.0985 26.3261 38.8398 31 38.8398C35.6739 38.8398 39.4766 35.0985 39.4766 30.5C39.4766 25.9015 35.6739 22.1602 31 22.1602ZM31 36.457C27.6614 36.457 24.9453 33.7847 24.9453 30.5C24.9453 27.2153 27.6614 24.543 31 24.543C34.3386 24.543 37.0547 27.2153 37.0547 30.5C37.0547 33.7847 34.3386 36.457 31 36.457Z" fill="black"/>
<path d="M51.1016 15.4888C51.1016 12.8607 48.9285 10.7231 46.2578 10.7231C43.5867 10.7231 41.4141 12.8607 41.4141 15.4888C41.4141 18.1164 43.5867 20.2544 46.2578 20.2544C48.9285 20.2544 51.1016 18.1164 51.1016 15.4888ZM43.8359 15.4888C43.8359 14.1745 44.9225 13.106 46.2578 13.106C47.5932 13.106 48.6797 14.1745 48.6797 15.4888C48.6797 16.8026 47.5932 17.8716 46.2578 17.8716C44.9225 17.8716 43.8359 16.8026 43.8359 15.4888Z" fill="black"/>
<path d="M23.7348 2.38281C24.4037 2.38281 24.9458 1.84947 24.9458 1.19141C24.9458 0.53334 24.4037 0 23.7348 0H23.7339C23.0655 0 22.5234 0.53334 22.5234 1.19141C22.5234 1.84947 23.066 2.38281 23.7348 2.38281Z" fill="black"/>
<path d="M38.2652 53.8516C37.5963 53.8516 37.0547 54.3849 37.0547 55.043C37.0547 55.701 37.5972 56.2344 38.2661 56.2344C38.935 56.2344 39.477 55.701 39.477 55.043C39.477 54.3849 38.935 53.8516 38.2661 53.8516H38.2652Z" fill="black"/>
</g>
<defs>
<linearGradient id="paint0_linear_324_1618" x1="5.47946" y1="5.39105" x2="55.989" y2="56.7286" gradientUnits="userSpaceOnUse">
<stop stop-color="#5557CF"/>
<stop offset="0.4973" stop-color="#D52B8C"/>
<stop offset="1" stop-color="#FED56C"/>
</linearGradient>
<linearGradient id="paint1_linear_324_1618" x1="20.7069" y1="-9.65015" x2="71.2164" y2="41.6874" gradientUnits="userSpaceOnUse">
<stop stop-color="#5557CF"/>
<stop offset="0.4973" stop-color="#D52B8C"/>
<stop offset="1" stop-color="#FED56C"/>
</linearGradient>
<linearGradient id="paint2_linear_324_1618" x1="5.44926" y1="5.36134" x2="55.9588" y2="56.6989" gradientUnits="userSpaceOnUse">
<stop stop-color="#5557CF"/>
<stop offset="0.4973" stop-color="#D52B8C"/>
<stop offset="1" stop-color="#FED56C"/>
</linearGradient>
<clipPath id="clip0_324_1618">
<rect width="62" height="61" fill="white"/>
</clipPath>
</defs>
</svg>
