<svg width="68" height="68" viewBox="0 0 68 68" fill="none" xmlns="http://www.w3.org/2000/svg">
<path d="M55.7812 4.78125H12.2188C8.11113 4.78125 4.78125 8.11113 4.78125 12.2188V55.7812C4.78125 59.8889 8.11113 63.2188 12.2188 63.2188H55.7812C59.8889 63.2188 63.2188 59.8889 63.2188 55.7812V12.2188C63.2188 8.11113 59.8889 4.78125 55.7812 4.78125Z" fill="#29ABE2"/>
<path d="M53.369 18.2009C51.714 19.1677 49.9073 19.8477 48.0254 20.2121C46.9677 19.119 45.6382 18.327 44.1733 17.9175C42.7084 17.508 41.161 17.4957 39.6897 17.8819C38.4367 18.2173 37.2777 18.837 36.303 19.6928C35.3282 20.5487 34.5638 21.6177 34.0691 22.8169C33.4397 24.3882 33.3081 26.115 33.6922 27.7635C30.3599 27.6051 27.0972 26.754 24.1121 25.2645C21.127 23.775 18.485 21.6798 16.3547 19.1125C14.1332 22.8649 15.3391 27.784 18.9578 30.1664C17.6241 30.1254 16.3187 29.7707 15.1476 29.1311C15.1528 31.0696 15.8274 32.9467 17.0571 34.4453C18.2868 35.9438 19.9963 36.9716 21.8964 37.3551C20.6558 37.6844 19.3574 37.7328 18.0956 37.4969C18.647 39.1522 19.6996 40.595 21.1076 41.6254C22.5155 42.6558 24.2091 43.2228 25.9536 43.2477C22.4025 45.9607 17.9373 47.1899 13.498 46.6765C20.1719 50.8851 28.8602 51.5784 36.126 48.489C41.8465 46.0568 46.3136 41.2713 48.611 35.5228C49.8616 32.4275 50.439 29.1015 50.305 25.7657C51.9477 24.598 53.3686 23.1462 54.5009 21.4788C52.9638 22.1498 51.3356 22.589 49.6697 22.7821C51.4197 21.7567 52.7352 20.1276 53.369 18.2009Z" fill="white"/>
<path d="M55.7812 64.0156H12.2188C7.73088 64.0156 3.98438 60.2691 3.98438 55.7812V49.9375H5.57812V55.7812C5.57812 59.4001 8.60001 62.4219 12.2188 62.4219H55.7812C59.4008 62.4219 62.4219 59.4008 62.4219 55.7812V12.2188C62.4219 8.59841 59.4015 5.57812 55.7812 5.57812H48.875V3.98438H55.7812C60.2691 3.98438 64.0156 7.73088 64.0156 12.2188V55.7812C64.0156 60.2691 60.2691 64.0156 55.7812 64.0156ZM5.57812 48.875H3.98438V47.2812H5.57812V48.875ZM5.57812 46.2188H3.98438V12.2188C3.98438 7.73088 7.73088 3.98438 12.2188 3.98438H47.8125V5.57812H12.2188C8.59921 5.57812 5.57812 8.59908 5.57812 12.2188V46.2188Z" fill="black"/>
<path d="M26.6023 51.1954C21.8552 51.1954 17.1126 49.8938 13.0736 47.3472C12.9208 47.2508 12.8052 47.1055 12.7459 46.9349C12.6866 46.7643 12.6869 46.5786 12.747 46.4082C12.807 46.2378 12.9231 46.0929 13.0763 45.9972C13.2295 45.9015 13.4107 45.8607 13.5901 45.8814C17.1279 46.2833 20.701 45.5353 23.7805 43.7482C22.2887 43.3688 20.9164 42.6195 19.7906 41.5697C18.6648 40.5198 17.8217 39.2032 17.3391 37.7414C17.2963 37.61 17.2883 37.4697 17.3161 37.3343C17.3438 37.1988 17.4063 37.073 17.4974 36.969C17.5885 36.8651 17.7051 36.7866 17.8357 36.7413C17.9662 36.696 18.1064 36.6855 18.2423 36.7107C18.2941 36.7204 18.346 36.7295 18.3982 36.7381C17.1538 35.8962 16.1344 34.7625 15.429 33.436C14.7237 32.1094 14.3538 30.6304 14.3517 29.1279C14.3516 28.9896 14.3876 28.8537 14.4561 28.7335C14.5245 28.6133 14.6231 28.513 14.7421 28.4425C14.861 28.3719 14.9963 28.3336 15.1346 28.3312C15.2729 28.3287 15.4094 28.3623 15.5308 28.4287C15.7949 28.5731 16.0675 28.7017 16.3469 28.8138C15.5546 27.7848 14.9903 26.599 14.6914 25.3352C14.1401 23.0818 14.4909 20.7021 15.6692 18.7036C15.7343 18.5937 15.8249 18.501 15.9333 18.4334C16.0418 18.3658 16.1649 18.3252 16.2923 18.3152C16.4197 18.3052 16.5477 18.3259 16.6654 18.3757C16.7831 18.4255 16.8871 18.5029 16.9686 18.6014C20.9178 23.3465 26.5896 26.3294 32.7373 26.8943C32.5715 25.4081 32.7752 23.9039 33.3304 22.5153C33.8694 21.2003 34.7056 20.0279 35.7734 19.0899C36.8411 18.152 38.1115 17.4739 39.4851 17.1089C41.0211 16.7102 42.633 16.7059 44.1712 17.0962C45.7094 17.4866 47.1241 18.259 48.2842 19.3419C49.9311 18.9793 51.5112 18.3612 52.967 17.51C53.1065 17.4285 53.2675 17.3913 53.4286 17.4034C53.5897 17.4154 53.7433 17.4762 53.8691 17.5775C53.9949 17.6789 54.0869 17.8161 54.133 17.971C54.179 18.1258 54.1769 18.291 54.1269 18.4446C53.7805 19.5072 53.2396 20.4961 52.5318 21.3611C53.0926 21.1864 53.6434 20.9809 54.1816 20.7456C54.3399 20.6764 54.5163 20.6605 54.6844 20.7003C54.8525 20.7401 55.0031 20.8334 55.1135 20.9662C55.224 21.099 55.2883 21.2641 55.2968 21.4366C55.3052 21.6091 55.2574 21.7797 55.1606 21.9227C54.0583 23.55 52.6913 24.9813 51.1164 26.1572C51.1854 29.4626 50.5851 32.7478 49.3517 35.8152C46.9304 41.8737 42.2237 46.7589 36.4385 49.219C33.3256 50.5312 29.9804 51.2033 26.6023 51.1954ZM16.7928 47.5323C22.7482 50.1915 29.7768 50.3198 35.8151 47.7524C41.2125 45.4575 45.607 40.8909 47.8718 35.2238C49.0769 32.2328 49.6349 29.0206 49.5091 25.7985C49.5031 25.6654 49.5306 25.5329 49.589 25.4131C49.6474 25.2934 49.7349 25.1902 49.8435 25.113C50.6716 24.5251 51.4423 23.8602 52.1453 23.1272C51.362 23.3284 50.5659 23.4765 49.7627 23.5704C49.5811 23.5917 49.3977 23.5499 49.2433 23.4521C49.0889 23.3543 48.9728 23.2063 48.9146 23.033C48.8563 22.8598 48.8593 22.6718 48.9232 22.5005C48.9871 22.3292 49.1079 22.1851 49.2654 22.0923C50.1812 21.5545 50.974 20.8306 51.5927 19.9673C50.4914 20.4222 49.3472 20.7655 48.1774 20.992C48.0461 21.0174 47.9106 21.0094 47.7832 20.9687C47.6558 20.928 47.5407 20.8559 47.4485 20.759C46.4882 19.7711 45.2832 19.0555 43.9562 18.6849C42.6292 18.3143 41.2278 18.3022 39.8946 18.6496C38.7597 18.9505 37.7099 19.5101 36.8274 20.2845C35.9449 21.0588 35.2537 22.027 34.8078 23.1131C34.2416 24.5327 34.1231 26.0915 34.4682 27.5803C34.4962 27.7004 34.4959 27.8254 34.4674 27.9454C34.4389 28.0653 34.3829 28.1771 34.3039 28.2717C34.2248 28.3664 34.1249 28.4415 34.012 28.491C33.899 28.5405 33.7761 28.5631 33.6529 28.557C27.1173 28.2345 20.971 25.3538 16.5417 20.5372C15.9328 22.1335 15.8837 23.8892 16.4024 25.5171C16.9211 27.1449 17.977 28.5485 19.3972 29.4982C19.5422 29.5936 19.6521 29.7338 19.7101 29.8974C19.7682 30.061 19.7712 30.239 19.7188 30.4045C19.6664 30.57 19.5614 30.7138 19.4197 30.8141C19.2781 30.9145 19.1076 30.9658 18.9341 30.9604C17.9512 30.9286 16.9794 30.7422 16.0546 30.4079C16.3155 31.9204 17.0281 33.3186 18.0987 34.4185C19.1692 35.5184 20.5476 36.2686 22.0525 36.5704C22.2291 36.6053 22.3886 36.699 22.5051 36.8362C22.6216 36.9734 22.6883 37.1459 22.6942 37.3258C22.7001 37.5057 22.645 37.6823 22.5378 37.8268C22.4305 37.9714 22.2775 38.0754 22.1037 38.1219C21.2086 38.3594 20.2835 38.4636 19.358 38.4311C20.0025 39.6287 20.9551 40.6324 22.1174 41.3386C23.2797 42.0447 24.6096 42.4275 25.9694 42.4474C26.1345 42.4504 26.2946 42.5047 26.4275 42.6026C26.5605 42.7005 26.6597 42.8373 26.7115 42.9941C26.7634 43.1508 26.7652 43.3198 26.7168 43.4777C26.6684 43.6356 26.5722 43.7745 26.4414 43.8753C23.6496 46.0072 20.2963 47.2781 16.7928 47.5323Z" fill="black"/>
</svg>
